<svg version="1.1" id="Layer_1" xmlns="http://www.w3.org/2000/svg" xmlns:xlink="http://www.w3.org/1999/xlink" x="0px" y="0px"
	 width="100%" viewBox="0 0 512 512" enable-background="new 0 0 512 512" xml:space="preserve">
<path fill="#FFFFFF" opacity="1.000000" stroke="none" 
	d="
M344.000000,513.000000 
	C229.361191,513.000000 115.222374,513.000000 1.041779,513.000000 
	C1.041779,342.402832 1.041779,171.805649 1.041779,1.104233 
	C171.555481,1.104233 342.111053,1.104233 512.833313,1.104233 
	C512.833313,171.666534 512.833313,342.333252 512.833313,513.000000 
	C456.805573,513.000000 400.652802,513.000000 344.000000,513.000000 
M392.865723,171.518997 
	C392.875183,171.074249 392.884644,170.629517 392.957367,169.281418 
	C392.696136,165.194214 392.434906,161.106995 391.558990,156.425034 
	C387.628876,156.624847 383.698792,156.824646 379.520447,156.984283 
	C379.520447,156.984283 379.269470,156.968872 379.033234,156.075500 
	C378.716248,152.068054 378.399261,148.060608 377.148407,144.016922 
	C373.390442,144.026581 369.632507,144.036224 364.973083,143.822952 
	C363.649841,143.773407 362.326691,143.683594 361.003357,143.680267 
	C335.104797,143.615143 309.206238,143.560089 282.359009,143.206482 
	C276.231354,143.156525 270.101746,142.998062 263.976898,143.106567 
	C261.284607,143.154297 258.601959,143.745636 255.025574,143.795715 
	C229.126282,143.757248 203.227005,143.700287 177.327713,143.693863 
	C171.194107,143.692352 165.060471,143.860489 158.956924,143.996124 
	C158.956924,143.996124 159.002319,143.965347 159.106689,143.049591 
	C159.106689,139.339722 159.106689,135.629868 159.106689,131.919998 
	C158.713165,131.921463 158.319626,131.922943 157.926102,131.924408 
	C157.926102,135.452560 157.926102,138.980698 157.926102,142.416489 
	C153.920746,142.996094 150.456009,143.497452 146.385315,144.570145 
	C146.250916,147.512512 145.996292,150.455841 146.019775,153.396942 
	C146.038925,155.792435 145.374100,157.016785 142.684982,157.033081 
	C138.964676,157.055603 133.534210,156.099869 131.960129,158.065186 
	C129.980530,160.536804 131.156174,165.535950 130.971786,169.444534 
	C130.948502,169.937881 130.934204,170.431641 130.015167,170.965363 
	C126.348717,171.260330 122.682266,171.555298 118.404137,172.467148 
	C118.265236,173.108856 118.005318,173.750458 118.004791,174.392273 
	C117.980736,203.780777 117.966881,233.169327 118.019249,262.557739 
	C118.021431,263.783142 118.666924,265.007324 119.458817,266.856232 
	C123.307739,267.237091 127.156662,267.617950 130.991425,268.936279 
	C130.991425,290.593445 130.991425,312.250610 130.991425,333.907776 
	C131.417709,333.908356 131.844009,333.908905 132.270294,333.909454 
	C132.270294,312.377808 132.270294,290.846130 132.270294,269.194336 
	C137.072403,269.194336 141.220703,269.194336 145.561966,270.091492 
	C145.555618,289.899841 145.511963,309.708344 145.606888,329.516205 
	C145.615372,331.287354 146.522614,333.054138 147.905807,335.018372 
	C150.936905,334.973206 153.968002,334.928040 157.489075,335.031799 
	C157.653992,335.075775 157.818924,335.119781 158.150925,335.582947 
	C158.338547,335.858093 158.598358,335.982727 159.060333,336.885040 
	C159.060333,341.123016 159.060333,345.360962 159.060333,349.994110 
	C173.513626,349.994110 187.250687,349.994110 201.125214,350.692932 
	C201.191086,351.162567 201.256958,351.632202 200.969101,352.364532 
	C201.082825,352.873657 201.196533,353.382751 201.212479,354.781311 
	C201.221802,363.593201 199.931641,362.786835 209.492935,362.801849 
	C210.629578,362.803650 211.766586,362.578247 212.840775,363.459656 
	C212.840775,367.625366 212.840775,371.791077 212.840775,375.956757 
	C214.021240,373.819702 214.020874,371.693359 214.021301,369.567047 
	C214.022568,363.005890 214.022690,362.998596 220.360596,362.997925 
	C248.138138,362.994965 275.915680,362.996582 303.693237,362.996521 
	C305.478149,362.996521 307.263062,362.996552 309.047974,362.996552 
	C309.047028,362.631012 309.046082,362.265442 309.045135,361.899902 
	C277.158783,361.899902 245.272446,361.899902 213.600143,360.998810 
	C213.675613,357.461853 213.751068,353.924896 214.782913,350.348907 
	C245.396683,350.310425 276.010620,350.233124 306.623810,350.347717 
	C308.160400,350.353455 309.690765,352.020752 311.149597,353.808533 
	C311.410492,356.626099 311.671356,359.443695 312.026184,363.052948 
	C315.550049,363.519775 319.073914,363.986633 322.978058,364.503815 
	C322.978058,368.373108 322.978058,372.215698 322.978058,376.058289 
	C323.124481,376.024689 323.270905,375.991058 323.417297,375.957458 
	C323.911835,371.591461 324.406372,367.225494 325.852539,362.956970 
	C339.083038,362.956970 352.313538,362.956970 365.765320,362.956970 
	C365.765320,358.853241 365.765320,355.434418 365.765320,352.015625 
	C365.584473,352.003357 365.403625,351.991089 365.222778,351.978821 
	C365.058075,355.163086 364.893372,358.347351 364.703247,362.022705 
	C351.162140,362.022705 338.068329,362.022705 324.892639,361.176819 
	C324.631226,357.549042 324.369812,353.921265 324.965332,349.923767 
	C337.070190,349.898926 349.176727,349.753479 361.278809,349.924683 
	C364.790527,349.974304 366.035553,348.855835 365.876190,345.387054 
	C365.717407,341.931671 366.029785,338.454651 366.541809,335.049713 
	C366.541809,335.049713 366.903168,334.853790 367.851837,334.912079 
	C371.107178,334.912079 374.362549,334.912079 377.762543,334.912079 
	C377.762543,330.897766 377.762543,327.451447 377.951538,323.084442 
	C377.896851,305.060883 377.842163,287.037354 377.890015,268.356110 
	C377.882263,267.912659 377.874512,267.469208 378.812439,266.935425 
	C382.642273,266.936401 386.478210,267.051941 390.297089,266.847870 
	C391.123596,266.803680 391.888702,265.610718 392.839569,264.045471 
	C392.765564,260.384186 392.691559,256.722870 392.889008,252.149506 
	C392.963226,244.199844 393.121490,236.249878 393.093414,228.300568 
	C393.041412,213.562286 392.880554,198.824387 393.112244,183.219116 
	C393.007019,180.132446 392.901764,177.045792 393.027039,173.388504 
	C392.965576,172.988464 392.904114,172.588409 392.865723,171.518997 
M380.593018,335.612244 
	C384.454926,335.612244 388.316803,335.612244 392.178711,335.612244 
	C392.163391,335.065460 392.148071,334.518677 392.132751,333.971893 
	C388.115692,333.971893 384.098663,333.971893 380.026031,333.039673 
	C380.026031,312.062531 380.026031,291.085388 380.026031,270.108246 
	C379.210327,270.564606 379.024323,271.035095 379.023895,271.505737 
	C379.006134,291.463959 378.987152,311.422241 379.045013,331.380280 
	C379.048553,332.598816 379.677094,333.815552 380.593018,335.612244 
M284.016510,130.795135 
	C284.890320,131.417053 285.754761,132.548676 286.639709,132.564972 
	C289.254822,132.613098 291.877594,132.035263 294.498138,132.029129 
	C316.390228,131.977844 338.282715,132.042480 360.174164,131.912674 
	C361.781494,131.903122 363.381439,130.649200 364.409515,129.372803 
	C363.762177,129.253036 363.114960,129.029037 362.467529,129.028519 
	C337.525238,129.008179 312.582916,128.994049 287.640747,129.048767 
	C286.423370,129.051437 285.207336,129.681061 284.016510,130.795135 
M394.269196,266.500397 
	C397.658173,266.873352 401.150299,267.828156 404.371887,267.256989 
	C405.311951,267.090302 405.553253,262.585052 405.969940,260.044678 
	C406.155548,258.912781 405.973663,257.722046 405.973602,256.558014 
	C405.971893,230.777710 405.984985,204.997375 405.952850,179.217117 
	C405.949585,176.600204 406.633759,172.636459 405.299713,171.688156 
	C403.382050,170.324966 399.903961,171.142944 397.090881,171.072250 
	C396.765717,171.064072 396.433777,171.325623 396.104980,171.462112 
	C396.127289,171.688065 396.149567,171.914032 396.171875,172.139984 
	C398.923859,172.139984 401.675873,172.139984 405.026947,172.139984 
	C405.026947,174.389389 405.026978,176.174484 405.026978,177.959579 
	C405.026978,204.072540 405.026825,230.185501 405.026947,256.298462 
	C405.026978,264.681488 405.026428,264.667175 396.878082,265.111816 
	C396.088654,265.154877 395.316620,265.516052 394.269196,266.500397 
M194.500000,130.030731 
	C214.560135,130.030731 234.620255,130.030731 255.156219,130.030731 
	C255.156219,134.211121 255.156219,137.505966 255.156219,140.800812 
	C255.320511,140.788589 255.484787,140.776382 255.649078,140.764175 
	C255.649078,137.023102 255.649078,133.282028 255.649078,129.321350 
	C223.592957,129.321350 191.859222,129.321350 160.125473,129.321350 
	C160.124268,129.557831 160.123047,129.794327 160.121841,130.030807 
	C171.247894,130.030807 182.373947,130.030807 194.500000,130.030731 
M393.007172,305.500000 
	C393.007172,293.730316 393.007172,281.960632 393.007172,270.190948 
	C392.776917,270.195404 392.546661,270.199860 392.316406,270.204346 
	C392.316406,290.405945 392.316406,310.607544 392.316406,330.809143 
	C392.546692,330.809906 392.776947,330.810699 393.007233,330.811462 
	C393.007233,322.707642 393.007233,314.603821 393.007172,305.500000 
M177.501038,362.996338 
	C184.616989,362.996338 191.732925,362.996338 198.848877,362.996338 
	C198.841522,362.772339 198.834183,362.548340 198.826828,362.324341 
	C185.929169,362.324341 173.031525,362.324341 160.133865,362.324341 
	C160.133316,362.548340 160.132767,362.772339 160.132217,362.996338 
	C165.588806,362.996338 171.045410,362.996338 177.501038,362.996338 
M146.980255,345.184692 
	C146.980255,342.478394 146.980255,339.772095 146.980255,337.065826 
	C146.760956,337.073456 146.541641,337.081116 146.322342,337.088776 
	C146.322342,341.036499 146.322342,344.984253 146.322342,348.932007 
	C146.541641,348.930847 146.760941,348.929657 146.980240,348.928497 
	C146.980240,347.964600 146.980240,347.000702 146.980255,345.184692 
M205.182068,376.184814 
	C206.386261,376.808319 207.590439,377.431793 208.794632,378.055298 
	C209.008209,377.517639 209.221802,376.979980 209.435394,376.442352 
	C208.259750,376.308441 207.084106,376.174530 205.182068,376.184814 
M155.084259,349.957489 
	C155.717377,349.884613 156.350494,349.811707 156.983612,349.738831 
	C156.976410,349.589233 156.969208,349.439667 156.962006,349.290070 
	C154.977203,349.290070 152.992401,349.290070 151.007599,349.290070 
	C150.999954,349.514587 150.992310,349.739075 150.984650,349.963593 
	C152.108032,349.963593 153.231415,349.963593 155.084259,349.957489 
M201.709808,366.165924 
	C201.610046,366.017151 201.510300,365.868347 201.410538,365.719574 
	C201.427856,365.928284 201.445190,366.136963 201.709808,366.165924 
M311.442230,365.912018 
	C311.442230,365.912018 311.514038,366.149170 311.514038,366.149170 
	C311.514038,366.149170 311.544617,365.806030 311.442230,365.912018 
M148.666290,350.510071 
	C148.666290,350.510071 148.432678,350.384277 148.432678,350.384277 
	C148.432678,350.384277 148.473236,350.653015 148.666290,350.510071 
z"/>
<path fill="#482A1F" opacity="1.000000" stroke="none" 
	d="
M311.224030,352.914398 
	C309.690765,352.020752 308.160400,350.353455 306.623810,350.347717 
	C276.010620,350.233124 245.396683,350.310425 214.226868,350.148987 
	C213.673691,349.638397 213.700775,349.329834 214.099823,348.772156 
	C214.629974,346.727417 215.138779,344.894928 214.930206,343.148071 
	C214.415955,338.841431 216.278961,337.818390 220.312332,337.928436 
	C229.959595,338.191650 239.618927,338.013428 249.273376,338.013428 
	C267.750000,338.013397 286.226837,338.046844 304.702789,337.935181 
	C305.883545,337.928070 308.969360,339.666443 308.266174,335.592224 
	C309.353302,334.896881 310.165344,334.432220 311.052551,334.432373 
	C311.159821,340.902893 311.191925,346.908630 311.224030,352.914398 
z"/>
<path fill="#FBFBF9" opacity="1.000000" stroke="none" 
	d="
M131.005585,267.998779 
	C127.156662,267.617950 123.307739,267.237091 119.254745,266.050232 
	C119.039062,234.112900 119.027435,202.981583 119.015816,171.850250 
	C122.682266,171.555298 126.348717,171.260330 130.741699,170.981125 
	C131.975143,171.187103 132.482071,171.377335 132.758835,171.775314 
	C132.172775,172.603195 131.816864,173.223312 131.278473,174.279938 
	C131.220871,177.527802 131.345779,180.339172 131.424225,183.485565 
	C131.510818,184.237274 131.643860,184.653946 131.601776,185.501160 
	C131.389053,205.870712 131.339890,225.809723 131.337814,245.748749 
	C131.337662,247.210739 131.678146,248.672775 131.679474,250.555176 
	C131.355347,255.585114 131.212036,260.194672 131.045349,265.172272 
	C131.016006,266.031799 131.010040,266.523224 131.031830,267.260651 
	C131.059570,267.506622 131.005585,267.998779 131.005585,267.998779 
z"/>
<path fill="#86613B" opacity="1.000000" stroke="none" 
	d="
M158.926849,143.950592 
	C165.060471,143.860489 171.194107,143.692352 177.327713,143.693863 
	C203.227005,143.700287 229.126282,143.757248 255.497070,143.919098 
	C255.968567,144.042496 255.905289,144.013855 255.918610,144.462372 
	C256.279877,148.946686 256.627808,152.982452 256.585083,156.929504 
	C255.131790,156.810303 254.069199,156.779816 252.890564,156.381989 
	C251.240997,155.675415 249.708115,155.043777 248.173843,155.040390 
	C220.980972,154.980438 193.787918,154.979538 166.595078,155.042572 
	C165.053589,155.046143 163.513641,155.709671 161.566376,156.081985 
	C160.345413,156.062256 159.531067,156.026566 158.745300,155.531250 
	C158.824860,151.364609 158.875854,147.657608 158.926849,143.950592 
z"/>
<path fill="#86613B" opacity="1.000000" stroke="none" 
	d="
M283.307678,143.502975 
	C309.206238,143.560089 335.104797,143.615143 361.003357,143.680267 
	C362.326691,143.683594 363.649841,143.773407 365.373901,144.392761 
	C365.802246,148.982819 365.829803,153.003067 365.790924,157.005432 
	C365.724487,156.987579 365.589355,156.954620 365.141785,156.938995 
	C364.101257,156.861908 363.508270,156.800446 362.831177,156.370361 
	C361.540771,155.666931 360.335205,155.043091 359.128082,155.040070 
	C336.007568,154.982178 312.886780,154.977020 289.766296,155.040970 
	C288.165253,155.045395 286.565887,155.676331 284.708649,155.990143 
	C284.110809,155.941177 283.770081,155.917984 283.414795,155.439590 
	C283.338074,151.174728 283.275879,147.365082 283.228943,143.527588 
	C283.244232,143.499725 283.307678,143.502975 283.307678,143.502975 
z"/>
<path fill="#482A1F" opacity="1.000000" stroke="none" 
	d="
M366.135559,334.987122 
	C366.029785,338.454651 365.717407,341.931671 365.876190,345.387054 
	C366.035553,348.855835 364.790527,349.974304 361.278809,349.924683 
	C349.176727,349.753479 337.070190,349.898926 324.366699,350.134918 
	C323.768066,350.346069 323.441925,350.458069 323.317932,349.979309 
	C323.422821,344.672241 323.651672,339.843933 324.358307,335.022461 
	C333.505951,334.965118 342.175812,334.900848 351.307373,334.964050 
	C356.557892,335.056671 361.346710,335.021912 366.135559,334.987122 
z"/>
<path fill="#482A1F" opacity="1.000000" stroke="none" 
	d="
M200.987732,349.994110 
	C187.250687,349.994110 173.513626,349.994110 159.060333,349.994110 
	C159.060333,345.360962 159.060333,341.123016 159.331696,336.175690 
	C168.140121,335.214630 176.677200,334.962921 185.501770,334.818176 
	C186.195999,334.937408 186.602737,334.949615 187.456223,335.098267 
	C192.222977,335.088531 196.542984,334.942383 200.939636,335.269745 
	C201.006775,340.493530 200.997253,345.243835 200.987732,349.994110 
z"/>
<path fill="#6E4E2D" opacity="1.000000" stroke="none" 
	d="
M377.787445,269.013794 
	C377.842163,287.037354 377.896851,305.060883 377.664429,323.447388 
	C377.168701,323.602875 377.018585,323.359314 376.732208,322.787048 
	C373.065491,322.346069 369.593628,322.197754 366.039124,321.583801 
	C366.026550,307.726318 366.096588,294.334412 366.572449,280.940002 
	C369.860413,280.460602 372.742523,279.983673 375.065399,279.599274 
	C376.052490,275.760651 376.919983,272.387207 377.787445,269.013794 
z"/>
<path fill="#040303" opacity="1.000000" stroke="none" 
	d="
M201.056473,350.343506 
	C200.997253,345.243835 201.006775,340.493530 200.946289,334.926086 
	C200.815018,333.432678 200.753754,332.756500 200.867157,331.650513 
	C201.062576,329.395081 200.846603,327.522736 201.193787,325.761414 
	C201.398849,324.721191 202.513245,323.035706 203.187943,323.050446 
	C206.749023,323.128113 210.300339,323.654236 213.819839,324.450653 
	C213.827728,326.582336 213.870834,328.288147 213.702606,330.243073 
	C213.393707,331.588348 213.296127,332.684509 213.111328,334.252380 
	C213.266754,339.490540 213.509415,344.256958 213.752075,349.023407 
	C213.700775,349.329834 213.673691,349.638397 213.748672,350.168518 
	C213.751068,353.924896 213.675613,357.461853 213.333481,361.449249 
	C212.844147,362.036682 212.789673,362.222839 212.903427,362.458160 
	C211.766586,362.578247 210.629578,362.803650 209.492935,362.801849 
	C199.931641,362.786835 201.221802,363.593201 201.478165,354.231506 
	C201.603516,353.155060 201.463181,352.628448 201.322830,352.101837 
	C201.256958,351.632202 201.191086,351.162567 201.056473,350.343506 
z"/>
<path fill="#040303" opacity="1.000000" stroke="none" 
	d="
M323.880524,335.015594 
	C323.651672,339.843933 323.422821,344.672241 323.228973,350.346375 
	C323.263977,354.746887 323.263977,358.301605 323.263977,362.261261 
	C319.047241,362.261261 315.489746,362.261261 311.932251,362.261261 
	C311.671356,359.443695 311.410492,356.626099 311.186829,353.361450 
	C311.191925,346.908630 311.159821,340.902893 311.002258,334.127930 
	C310.848969,332.948395 310.821167,332.538055 310.964539,331.696716 
	C311.046906,328.812653 310.958038,326.359589 310.945801,323.899292 
	C311.022461,323.892120 311.068420,324.039032 311.526459,324.033875 
	C315.720642,323.984894 319.456818,323.941071 323.348572,324.305573 
	C323.694092,327.139282 323.884033,329.564606 323.914307,332.344360 
	C323.796570,333.471008 323.838531,334.243317 323.880524,335.015594 
z"/>
<path fill="#F7F6F4" opacity="1.000000" stroke="none" 
	d="
M158.941895,143.973358 
	C158.875854,147.657608 158.824860,151.364609 158.526215,155.587296 
	C158.012833,156.319321 157.922531,156.593521 157.548157,156.937775 
	C155.276627,156.950516 153.441696,157.136078 151.657135,156.915054 
	C147.238998,156.367905 145.703079,158.308899 145.981491,162.573135 
	C146.161758,165.334137 145.754944,168.133484 145.436325,170.873734 
	C145.261444,170.831818 145.002197,171.085831 144.558167,171.064575 
	C140.788315,171.202286 137.462524,171.361252 133.846497,171.452301 
	C133.367188,171.445435 133.178101,171.506500 132.988998,171.567566 
	C132.482071,171.377335 131.975143,171.187103 131.191971,170.961060 
	C130.934204,170.431641 130.948502,169.937881 130.971786,169.444534 
	C131.156174,165.535950 129.980530,160.536804 131.960129,158.065186 
	C133.534210,156.099869 138.964676,157.055603 142.684982,157.033081 
	C145.374100,157.016785 146.038925,155.792435 146.019775,153.396942 
	C145.996292,150.455841 146.250916,147.512512 147.149643,144.267365 
	C151.610092,143.964844 155.306198,143.965088 159.002319,143.965347 
	C159.002319,143.965347 158.956924,143.996124 158.941895,143.973358 
z"/>
<path fill="#8C6741" opacity="1.000000" stroke="none" 
	d="
M392.796509,173.959137 
	C392.901764,177.045792 393.007019,180.132446 392.745544,183.729065 
	C392.378845,184.239014 391.963684,184.254440 391.846375,183.973801 
	C391.146210,184.122238 390.563385,184.551315 389.990295,184.990204 
	C390.000000,185.000000 389.980103,184.979675 389.524017,184.978607 
	C388.401642,184.977448 387.735382,184.977158 387.069092,184.977280 
	C379.985443,184.978516 379.983612,184.978546 379.983276,191.856293 
	C379.982422,210.178864 380.018890,228.501602 379.934753,246.823776 
	C379.925140,248.915604 379.243713,251.004318 378.620361,253.060638 
	C378.197144,253.011047 378.027405,252.995285 377.914917,252.515182 
	C378.018372,225.377121 378.064514,198.703384 378.338654,171.902924 
	C378.715302,171.470779 378.863983,171.165390 379.467712,170.901794 
	C383.258881,171.057465 386.595001,171.171356 389.915070,171.480377 
	C389.898987,171.675507 389.998688,172.055023 390.036011,172.386734 
	C390.981079,173.132004 391.888794,173.545563 392.796509,173.959137 
z"/>
<path fill="#B86D52" opacity="1.000000" stroke="none" 
	d="
M185.214264,334.711212 
	C176.677200,334.962921 168.140121,335.214630 159.266693,335.711609 
	C158.598358,335.982727 158.338547,335.858093 158.095840,335.141693 
	C158.040756,334.700439 158.106842,334.238831 158.175018,333.819214 
	C158.337906,332.840790 158.432617,332.281952 158.716034,331.420013 
	C159.015366,328.348114 159.126007,325.579346 159.686981,322.868103 
	C168.280212,322.925629 176.423126,322.925629 185.127762,322.925629 
	C185.127762,326.534302 185.127762,329.294922 185.100616,332.388947 
	C185.120392,333.385315 185.167328,334.048248 185.214264,334.711212 
z"/>
<path fill="#623F1C" opacity="1.000000" stroke="none" 
	d="
M391.963684,184.254440 
	C391.963684,184.254440 392.378845,184.239014 392.571960,184.162659 
	C392.880554,198.824387 393.041412,213.562286 393.093414,228.300568 
	C393.121490,236.249878 392.963226,244.199844 392.423645,252.614502 
	C391.300049,253.045273 390.641815,253.011032 389.988403,252.510681 
	C389.988861,229.689590 389.984467,207.334641 389.980103,184.979675 
	C389.980103,184.979675 390.000000,185.000000 390.269775,184.984985 
	C391.014282,184.731445 391.488983,184.492950 391.963684,184.254440 
z"/>
<path fill="#F7F6F4" opacity="1.000000" stroke="none" 
	d="
M389.931152,171.285263 
	C386.595001,171.171356 383.258881,171.057465 379.401093,170.607285 
	C378.723358,170.143387 378.567291,170.015793 378.478027,169.444305 
	C378.557648,165.447891 378.570496,161.895340 378.780792,158.012268 
	C379.075348,157.444107 379.172424,157.206497 379.269470,156.968872 
	C379.269470,156.968872 379.520447,156.984283 380.130249,157.019958 
	C384.551270,157.043671 388.362457,157.031723 392.173676,157.019791 
	C392.434906,161.106995 392.696136,165.194214 392.579834,169.702789 
	C391.445282,170.511200 390.688232,170.898239 389.931152,171.285263 
z"/>
<path fill="#B86D52" opacity="1.000000" stroke="none" 
	d="
M366.338684,335.018433 
	C361.346710,335.021912 356.557892,335.056671 351.305450,334.615234 
	C350.839661,333.440552 350.837463,332.742065 350.901398,331.627899 
	C350.662628,328.820984 350.357758,326.429810 350.291718,323.867432 
	C350.731171,323.155334 350.931793,322.614410 351.354614,322.077576 
	C351.576813,322.081665 352.022217,322.047760 352.478241,322.052307 
	C357.147034,322.343597 361.359772,322.630371 365.698914,323.309326 
	C365.840027,324.799957 365.854767,325.898438 365.638763,327.248230 
	C365.581390,328.992828 365.754761,330.486084 365.919495,332.260681 
	C365.911987,332.729706 365.913177,332.917389 365.946350,333.327515 
	C366.094696,333.838196 366.286835,334.061035 366.650330,334.372711 
	C366.745941,334.526855 366.903168,334.853790 366.903168,334.853790 
	C366.903168,334.853790 366.541809,335.049713 366.338684,335.018433 
z"/>
<path fill="#FDFDFD" opacity="1.000000" stroke="none" 
	d="
M364.984833,129.973801 
	C363.381439,130.649200 361.781494,131.903122 360.174164,131.912674 
	C338.282715,132.042480 316.390228,131.977844 294.498138,132.029129 
	C291.877594,132.035263 289.254822,132.613098 286.639709,132.564972 
	C285.754761,132.548676 284.890320,131.417053 284.473297,130.406372 
	C311.614990,130.003006 338.299927,129.988403 364.984833,129.973801 
z"/>
<path fill="#8C6741" opacity="1.000000" stroke="none" 
	d="
M147.012451,334.822968 
	C146.522614,333.054138 145.615372,331.287354 145.606888,329.516205 
	C145.511963,309.708344 145.555618,289.899841 145.438889,269.617279 
	C145.315811,269.143066 145.250916,269.107544 145.534363,268.969635 
	C145.533859,268.126434 145.249878,267.421112 144.976166,266.439392 
	C145.351852,265.786407 145.717285,265.409790 146.452942,265.192627 
	C149.260147,265.567535 151.730667,265.608032 154.121231,266.065918 
	C155.494400,266.328918 156.737961,267.268524 157.573822,267.913940 
	C146.694778,268.014130 146.690247,268.014252 146.996399,278.482300 
	C147.020325,279.300110 147.169006,280.114288 147.213806,281.400574 
	C147.229385,295.306610 147.290863,308.742249 147.272888,322.621277 
	C147.133133,326.984100 147.072800,330.903534 147.012451,334.822968 
z"/>
<path fill="#FBFBF9" opacity="1.000000" stroke="none" 
	d="
M365.857361,157.023285 
	C365.829803,153.003067 365.802246,148.982819 365.824615,144.504227 
	C369.632507,144.036224 373.390442,144.026581 377.603455,144.485657 
	C377.703247,148.903549 377.347992,152.852707 376.534363,156.831085 
	C372.669830,156.914658 369.263611,156.968979 365.857361,157.023285 
z"/>
<path fill="#D8DDD3" opacity="1.000000" stroke="none" 
	d="
M394.402832,266.114990 
	C395.316620,265.516052 396.088654,265.154877 396.878082,265.111816 
	C405.026428,264.667175 405.026978,264.681488 405.026947,256.298462 
	C405.026825,230.185501 405.026978,204.072540 405.026978,177.959579 
	C405.026978,176.174484 405.026947,174.389389 405.026947,172.139984 
	C401.675873,172.139984 398.923859,172.139984 396.171875,172.139984 
	C396.149567,171.914032 396.127289,171.688065 396.104980,171.462112 
	C396.433777,171.325623 396.765717,171.064072 397.090881,171.072250 
	C399.903961,171.142944 403.382050,170.324966 405.299713,171.688156 
	C406.633759,172.636459 405.949585,176.600204 405.952850,179.217117 
	C405.984985,204.997375 405.971893,230.777710 405.973602,256.558014 
	C405.973663,257.722046 406.155548,258.912781 405.969940,260.044678 
	C405.553253,262.585052 405.311951,267.090302 404.371887,267.256989 
	C401.150299,267.828156 397.658173,266.873352 394.402832,266.114990 
z"/>
<path fill="#482A1F" opacity="1.000000" stroke="none" 
	d="
M377.838745,268.684937 
	C376.919983,272.387207 376.052490,275.760651 375.065399,279.599274 
	C372.742523,279.983673 369.860413,280.460602 366.462830,280.491547 
	C365.960205,276.018982 365.973083,271.992401 366.213135,267.967285 
	C366.440247,267.968750 366.886597,267.884766 367.281067,267.957855 
	C370.443970,267.739838 373.212372,267.448761 376.287079,267.131104 
	C376.798370,267.104309 377.003326,267.104065 377.376953,267.118103 
	C377.545563,267.132385 377.866791,267.025757 377.866760,267.025757 
	C377.874512,267.469208 377.882263,267.912659 377.838745,268.684937 
z"/>
<path fill="#D8DDD3" opacity="1.000000" stroke="none" 
	d="
M212.872101,362.958923 
	C212.789673,362.222839 212.844147,362.036682 213.226456,361.899780 
	C245.272446,361.899902 277.158783,361.899902 309.045135,361.899902 
	C309.046082,362.265442 309.047028,362.631012 309.047974,362.996552 
	C307.263062,362.996552 305.478149,362.996521 303.693237,362.996521 
	C275.915680,362.996582 248.138138,362.994965 220.360596,362.997925 
	C214.022690,362.998596 214.022568,363.005890 214.021301,369.567047 
	C214.020874,371.693359 214.021240,373.819702 212.840775,375.956757 
	C212.840775,371.791077 212.840775,367.625366 212.872101,362.958923 
z"/>
<path fill="#D8DDD3" opacity="1.000000" stroke="none" 
	d="
M194.000000,130.030762 
	C182.373947,130.030807 171.247894,130.030807 160.121841,130.030807 
	C160.123047,129.794327 160.124268,129.557831 160.125473,129.321350 
	C191.859222,129.321350 223.592957,129.321350 255.649078,129.321350 
	C255.649078,133.282028 255.649078,137.023102 255.649078,140.764175 
	C255.484787,140.776382 255.320511,140.788589 255.156219,140.800812 
	C255.156219,137.505966 255.156219,134.211121 255.156219,130.030731 
	C234.620255,130.030731 214.560135,130.030731 194.000000,130.030762 
z"/>
<path fill="#D8DDD3" opacity="1.000000" stroke="none" 
	d="
M118.709976,172.158691 
	C119.027435,202.981583 119.039062,234.112900 119.031693,265.738159 
	C118.666924,265.007324 118.021431,263.783142 118.019249,262.557739 
	C117.966881,233.169327 117.980736,203.780777 118.004791,174.392273 
	C118.005318,173.750458 118.265236,173.108856 118.709976,172.158691 
z"/>
<path fill="#D8DDD3" opacity="1.000000" stroke="none" 
	d="
M130.998505,268.467529 
	C131.005585,267.998779 131.059570,267.506622 131.379501,267.247131 
	C131.930084,266.962372 132.160736,266.937042 132.551926,266.850311 
	C132.712463,266.788879 132.990631,266.990906 133.264526,267.300964 
	C137.442581,268.109863 141.346741,268.608704 145.250916,269.107544 
	C145.250916,269.107544 145.315811,269.143066 145.342407,269.168701 
	C141.220703,269.194336 137.072403,269.194336 132.270294,269.194336 
	C132.270294,290.846130 132.270294,312.377808 132.270294,333.909454 
	C131.844009,333.908905 131.417709,333.908356 130.991425,333.907776 
	C130.991425,312.250610 130.991425,290.593445 130.998505,268.467529 
z"/>
<path fill="#D8DDD3" opacity="1.000000" stroke="none" 
	d="
M364.697174,129.673309 
	C338.299927,129.988403 311.614990,130.003006 284.460388,130.018188 
	C285.207336,129.681061 286.423370,129.051437 287.640747,129.048767 
	C312.582916,128.994049 337.525238,129.008179 362.467529,129.028519 
	C363.114960,129.029037 363.762177,129.253036 364.697174,129.673309 
z"/>
<path fill="#C9BDAC" opacity="1.000000" stroke="none" 
	d="
M311.979218,362.657104 
	C315.489746,362.261261 319.047241,362.261261 323.263977,362.261261 
	C323.263977,358.301605 323.263977,354.746887 323.352966,350.825134 
	C323.441925,350.458069 323.768066,350.346069 323.938232,350.319763 
	C324.369812,353.921265 324.631226,357.549042 324.920319,361.809326 
	C324.947998,362.441833 324.900909,362.859497 324.900909,362.859497 
	C324.406372,367.225494 323.911835,371.591461 323.417297,375.957458 
	C323.270905,375.991058 323.124481,376.024689 322.978058,376.058289 
	C322.978058,372.215698 322.978058,368.373108 322.978058,364.503815 
	C319.073914,363.986633 315.550049,363.519775 311.979218,362.657104 
z"/>
<path fill="#D8DDD3" opacity="1.000000" stroke="none" 
	d="
M380.014832,335.033112 
	C379.677094,333.815552 379.048553,332.598816 379.045013,331.380280 
	C378.987152,311.422241 379.006134,291.463959 379.023895,271.505737 
	C379.024323,271.035095 379.210327,270.564606 380.026031,270.108246 
	C380.026031,291.085388 380.026031,312.062531 380.031342,333.770874 
	C380.029358,334.679108 380.022095,334.856110 380.014832,335.033112 
z"/>
<path fill="#F7F6F4" opacity="1.000000" stroke="none" 
	d="
M393.007202,306.000000 
	C393.007233,314.603821 393.007233,322.707642 393.007233,330.811462 
	C392.776947,330.810699 392.546692,330.809906 392.316406,330.809143 
	C392.316406,310.607544 392.316406,290.405945 392.316406,270.204346 
	C392.546661,270.199860 392.776917,270.195404 393.007172,270.190948 
	C393.007172,281.960632 393.007172,293.730316 393.007202,306.000000 
z"/>
<path fill="#351A12" opacity="1.000000" stroke="none" 
	d="
M365.914398,333.105042 
	C365.913177,332.917389 365.911987,332.729706 366.160919,332.259644 
	C366.411011,331.977234 366.887207,331.900665 367.341522,331.922882 
	C370.053497,331.945099 372.311157,331.945099 373.667480,331.945099 
	C374.988403,328.352356 375.957733,325.716034 376.927032,323.079681 
	C377.018585,323.359314 377.168701,323.602875 377.569946,323.907745 
	C377.762543,327.451447 377.762543,330.897766 377.762543,334.912079 
	C374.362549,334.912079 371.107178,334.912079 367.377502,334.882935 
	C366.903168,334.853790 366.745941,334.526855 366.675568,334.128906 
	C366.500671,333.383606 366.270386,333.174988 365.914398,333.105042 
z"/>
<path fill="#D8DDD3" opacity="1.000000" stroke="none" 
	d="
M325.376709,362.908234 
	C324.900909,362.859497 324.947998,362.441833 324.961243,362.232269 
	C338.068329,362.022705 351.162140,362.022705 364.703247,362.022705 
	C364.893372,358.347351 365.058075,355.163086 365.222778,351.978821 
	C365.403625,351.991089 365.584473,352.003357 365.765320,352.015625 
	C365.765320,355.434418 365.765320,358.853241 365.765320,362.956970 
	C352.313538,362.956970 339.083038,362.956970 325.376709,362.908234 
z"/>
<path fill="#351A12" opacity="1.000000" stroke="none" 
	d="
M147.459137,334.920654 
	C147.072800,330.903534 147.133133,326.984100 147.535034,322.581665 
	C148.233643,322.082764 148.590698,322.066864 148.963318,322.367249 
	C149.008667,323.105499 149.038437,323.527405 149.054077,324.400391 
	C148.991013,332.177338 148.991043,332.178162 156.265045,331.927795 
	C156.596390,331.916412 156.926422,331.866913 157.578094,331.846436 
	C158.108536,331.812866 158.317947,331.768005 158.527344,331.723145 
	C158.432617,332.281952 158.337906,332.840790 157.942230,333.818298 
	C157.345337,334.370911 157.131271,334.586182 156.999100,334.882874 
	C153.968002,334.928040 150.936905,334.973206 147.459137,334.920654 
z"/>
<path fill="#351A12" opacity="1.000000" stroke="none" 
	d="
M389.983551,252.976776 
	C390.641815,253.011032 391.300049,253.045273 392.287933,253.070541 
	C392.691559,256.722870 392.765564,260.384186 392.407776,264.474365 
	C388.658478,264.925568 385.341003,264.947876 382.104095,264.585358 
	C382.518188,263.860413 382.902496,263.186981 383.177734,263.228973 
	C390.042694,264.275635 390.630798,260.180725 390.000702,255.023575 
	C389.921478,254.375259 390.012665,253.706131 390.016174,253.028320 
	C390.007446,253.009995 389.983551,252.976776 389.983551,252.976776 
z"/>
<path fill="#D8DDD3" opacity="1.000000" stroke="none" 
	d="
M177.001526,362.996338 
	C171.045410,362.996338 165.588806,362.996338 160.132217,362.996338 
	C160.132767,362.772339 160.133316,362.548340 160.133865,362.324341 
	C173.031525,362.324341 185.929169,362.324341 198.826828,362.324341 
	C198.834183,362.548340 198.841522,362.772339 198.848877,362.996338 
	C191.732925,362.996338 184.616989,362.996338 177.001526,362.996338 
z"/>
<path fill="#6E4E2D" opacity="1.000000" stroke="none" 
	d="
M382.023499,264.970184 
	C385.341003,264.947876 388.658478,264.925568 392.329041,264.925110 
	C391.888702,265.610718 391.123596,266.803680 390.297089,266.847870 
	C386.478210,267.051941 382.642273,266.936401 378.339600,266.980591 
	C377.866791,267.025757 377.545563,267.132385 377.420166,266.822571 
	C377.776794,265.658447 378.258850,264.804169 379.069824,264.075317 
	C380.273621,264.457214 381.148560,264.713684 382.023499,264.970184 
z"/>
<path fill="#C9BDAC" opacity="1.000000" stroke="none" 
	d="
M282.833344,143.354736 
	C283.307678,143.502975 283.244232,143.499725 282.766541,143.689697 
	C273.494354,143.924408 264.699829,143.969131 255.905289,144.013855 
	C255.905289,144.013855 255.968567,144.042496 255.941742,144.066315 
	C258.601959,143.745636 261.284607,143.154297 263.976898,143.106567 
	C270.101746,142.998062 276.231354,143.156525 282.833344,143.354736 
z"/>
<path fill="#F7F6F4" opacity="1.000000" stroke="none" 
	d="
M380.303925,335.322693 
	C380.022095,334.856110 380.029358,334.679108 380.059143,334.237000 
	C384.098663,333.971893 388.115692,333.971893 392.132751,333.971893 
	C392.148071,334.518677 392.163391,335.065460 392.178711,335.612244 
	C388.316803,335.612244 384.454926,335.612244 380.303925,335.322693 
z"/>
<path fill="#C9BDAC" opacity="1.000000" stroke="none" 
	d="
M159.054504,143.507477 
	C155.306198,143.965088 151.610092,143.964844 147.452606,143.981705 
	C150.456009,143.497452 153.920746,142.996094 157.926102,142.416489 
	C157.926102,138.980698 157.926102,135.452560 157.926102,131.924408 
	C158.319626,131.922943 158.713165,131.921463 159.106689,131.919998 
	C159.106689,135.629868 159.106689,139.339722 159.054504,143.507477 
z"/>
<path fill="#C9BDAC" opacity="1.000000" stroke="none" 
	d="
M376.992737,156.801849 
	C377.347992,152.852707 377.703247,148.903549 378.070435,144.503784 
	C378.399261,148.060608 378.716248,152.068054 379.151367,156.522186 
	C379.172424,157.206497 379.075348,157.444107 378.497406,157.928802 
	C377.675293,157.717865 377.334015,157.259842 376.992737,156.801849 
z"/>
<path fill="#D8DDD3" opacity="1.000000" stroke="none" 
	d="
M146.980255,345.610748 
	C146.980240,347.000702 146.980240,347.964600 146.980240,348.928497 
	C146.760941,348.929657 146.541641,348.930847 146.322342,348.932007 
	C146.322342,344.984253 146.322342,341.036499 146.322342,337.088776 
	C146.541641,337.081116 146.760956,337.073456 146.980255,337.065826 
	C146.980255,339.772095 146.980255,342.478394 146.980255,345.610748 
z"/>
<path fill="#FDFDFD" opacity="1.000000" stroke="none" 
	d="
M205.545258,376.112732 
	C207.084106,376.174530 208.259750,376.308441 209.435394,376.442352 
	C209.221802,376.979980 209.008209,377.517639 208.794632,378.055298 
	C207.590439,377.431793 206.386261,376.808319 205.545258,376.112732 
z"/>
<path fill="#C9BDAC" opacity="1.000000" stroke="none" 
	d="
M391.866333,156.722412 
	C388.362457,157.031723 384.551270,157.043671 380.254364,157.040039 
	C383.698792,156.824646 387.628876,156.624847 391.866333,156.722412 
z"/>
<path fill="#D8DDD3" opacity="1.000000" stroke="none" 
	d="
M154.719528,349.960541 
	C153.231415,349.963593 152.108032,349.963593 150.984650,349.963593 
	C150.992310,349.739075 150.999954,349.514587 151.007599,349.290070 
	C152.992401,349.290070 154.977203,349.290070 156.962006,349.290070 
	C156.969208,349.439667 156.976410,349.589233 156.983612,349.738831 
	C156.350494,349.811707 155.717377,349.884613 154.719528,349.960541 
z"/>
<path fill="#6E4E2D" opacity="1.000000" stroke="none" 
	d="
M392.911774,173.673828 
	C391.888794,173.545563 390.981079,173.132004 390.392883,172.388611 
	C391.422485,172.101974 392.132568,172.145172 392.842651,172.188370 
	C392.904114,172.588409 392.965576,172.988464 392.911774,173.673828 
z"/>
<path fill="#C9BDAC" opacity="1.000000" stroke="none" 
	d="
M392.854187,171.853683 
	C392.132568,172.145172 391.422485,172.101974 390.355530,172.056900 
	C389.998688,172.055023 389.898987,171.675507 389.915070,171.480392 
	C390.688232,170.898239 391.445282,170.511200 392.548218,170.154480 
	C392.884644,170.629517 392.875183,171.074249 392.854187,171.853683 
z"/>
<path fill="#482A1F" opacity="1.000000" stroke="none" 
	d="
M201.145966,352.233185 
	C201.463181,352.628448 201.603516,353.155060 201.527039,353.786774 
	C201.196533,353.382751 201.082825,352.873657 201.145966,352.233185 
z"/>
<path fill="#D8DDD3" opacity="1.000000" stroke="none" 
	d="
M201.586151,366.255798 
	C201.445190,366.136963 201.427856,365.928284 201.410538,365.719574 
	C201.510300,365.868347 201.610046,366.017151 201.586151,366.255798 
z"/>
<path fill="#C9BDAC" opacity="1.000000" stroke="none" 
	d="
M311.493408,365.859009 
	C311.544617,365.806030 311.514038,366.149170 311.514038,366.149170 
	C311.514038,366.149170 311.442230,365.912018 311.493408,365.859009 
z"/>
<path fill="#D8DDD3" opacity="1.000000" stroke="none" 
	d="
M148.569763,350.581543 
	C148.473236,350.653015 148.432678,350.384277 148.432678,350.384277 
	C148.432678,350.384277 148.666290,350.510071 148.569763,350.581543 
z"/>
<path fill="#8C6741" opacity="1.000000" stroke="none" 
	d="
M157.244080,334.957336 
	C157.131271,334.586182 157.345337,334.370911 157.874054,334.237915 
	C158.106842,334.238831 158.040756,334.700439 158.012314,334.932098 
	C157.818924,335.119781 157.653992,335.075775 157.244080,334.957336 
z"/>
<path fill="#EDC29A" opacity="1.000000" stroke="none" 
	d="
M351.132416,322.073486 
	C350.931793,322.614410 350.731171,323.155334 349.905029,323.691650 
	C340.697235,323.451233 332.114990,323.215454 323.351715,322.777466 
	C323.103180,322.407501 323.035614,322.239716 322.988464,321.602966 
	C323.004822,317.985718 323.303070,314.793579 322.856384,311.709351 
	C322.662384,310.369781 321.110596,308.430756 319.877045,308.168640 
	C312.538727,306.609314 310.988464,307.984283 311.002960,315.325623 
	C311.007538,317.643982 311.080200,319.962250 311.078247,322.578278 
	C311.046021,323.263672 311.057220,323.651367 311.068420,324.039032 
	C311.068420,324.039032 311.022461,323.892120 310.559753,323.964355 
	C310.329193,326.733612 310.561279,329.430634 310.793365,332.127686 
	C310.821167,332.538055 310.848969,332.948395 310.927094,333.663177 
	C310.165344,334.432220 309.353302,334.896881 307.833435,335.398743 
	C302.308472,335.386902 297.491425,335.306915 292.674164,335.294037 
	C266.758514,335.224701 240.842819,335.172058 214.942291,334.713074 
	C214.609619,332.872986 214.261780,331.433472 213.913940,329.993958 
	C213.870834,328.288147 213.827728,326.582336 214.074371,324.319214 
	C213.910812,322.838287 213.457535,321.914734 213.006851,320.530945 
	C213.009201,317.907349 212.815170,315.722748 213.049011,313.584991 
	C213.538040,309.114349 211.563446,307.828064 207.282059,307.886993 
	C203.166718,307.943634 200.350479,308.413849 200.951675,313.527313 
	C201.241180,315.989685 201.005020,318.513885 200.763657,321.163177 
	C200.027466,321.887726 199.534515,322.459167 198.580048,323.020264 
	C194.415924,323.322815 190.713333,323.635712 186.727142,323.650085 
	C186.299759,321.547028 186.035217,319.742828 186.031158,317.938019 
	C185.997559,302.999603 186.044083,288.060974 185.968948,273.122864 
	C185.960251,271.392883 185.357178,269.665833 184.938812,267.565735 
	C182.231430,267.142334 179.614899,267.090637 176.624451,267.036743 
	C175.502914,267.018463 174.755280,267.002380 173.966629,266.700592 
	C173.856110,266.235352 173.786621,266.055847 173.760956,265.434692 
	C173.527390,261.006592 173.250015,257.020172 172.998749,252.630096 
	C173.017426,251.150986 173.010025,250.075500 173.015045,248.531464 
	C173.029755,227.381439 173.032028,206.699951 173.295013,185.890503 
	C174.035233,185.171555 174.514755,184.580582 175.436813,184.001373 
	C185.212433,184.047653 185.778366,183.719101 185.913162,174.865997 
	C185.969406,171.172012 187.748505,170.956223 190.584976,170.960709 
	C211.388412,170.993591 232.191986,170.931732 253.334839,170.928421 
	C254.128006,170.955704 254.581863,170.954315 255.140472,171.178253 
	C255.446365,171.684448 255.713379,171.871231 256.036194,172.427139 
	C256.016937,175.381729 256.126709,177.880630 255.969757,180.362686 
	C255.750610,183.828247 257.268311,185.109512 260.679474,185.018631 
	C266.654694,184.859436 272.638092,184.912064 278.616364,184.996216 
	C282.419739,185.049759 284.183319,183.276352 283.937317,179.538025 
	C283.753845,176.749863 283.439941,173.970291 283.638214,171.133209 
	C303.910065,171.051437 323.727753,171.009186 343.545471,171.001846 
	C352.152100,170.998657 351.161499,170.367218 350.920441,178.487762 
	C350.785828,183.021652 352.567688,184.549118 356.790070,184.043243 
	C357.775208,183.925217 358.802460,184.141373 359.783051,184.005997 
	C364.553619,183.347473 366.128967,185.264603 366.083466,190.135101 
	C365.887543,211.116150 366.058777,232.100632 366.047607,253.537323 
	C365.854401,258.287903 365.709900,262.585052 365.425842,266.859192 
	C365.286255,266.836243 365.003815,266.851929 364.688416,266.597656 
	C361.972198,266.230133 359.540924,265.837677 357.180481,266.094971 
	C355.400604,266.288971 353.711426,267.314911 351.757507,267.994019 
	C351.533173,268.017517 351.083252,268.050873 351.054932,267.578857 
	C351.020294,266.608429 351.009888,266.110016 351.008331,265.611572 
	C350.969452,253.155518 350.969604,253.155518 338.560364,252.527618 
	C338.395111,248.329620 338.381042,244.568481 338.544678,240.609619 
	C338.386383,239.835770 338.050354,239.259674 337.856781,238.310806 
	C338.284760,236.332764 338.776917,234.733063 338.820312,233.121277 
	C339.013611,225.938004 338.967224,225.931351 331.876160,225.932114 
	C329.068909,225.932419 326.261627,225.962769 322.962128,225.953400 
	C319.665314,225.880447 316.811066,225.511932 314.078888,225.933838 
	C312.866760,226.121002 310.984772,227.888245 310.964722,228.967239 
	C310.749817,240.521484 310.805450,252.081909 310.912354,263.639496 
	C310.925385,265.048218 311.674042,266.450165 312.260132,268.150726 
	C313.062714,268.617065 313.681549,268.911957 314.312164,268.939941 
	C322.308899,269.294525 322.430542,269.276367 322.975739,277.181213 
	C323.195251,280.364471 324.816650,281.021759 327.532043,280.995605 
	C335.022675,280.923431 342.514374,280.965820 350.006622,281.433899 
	C350.007477,293.607635 349.962433,305.310760 350.057404,317.012756 
	C350.071136,318.702454 350.757385,320.386719 351.132416,322.073486 
M230.703094,267.479218 
	C231.829453,267.624878 232.955795,267.770538 234.385117,268.433960 
	C236.230072,268.233734 238.075043,268.033478 240.291504,267.069183 
	C240.601593,261.052704 241.099228,255.037689 241.145599,249.019180 
	C241.170135,245.833282 240.410004,242.641342 240.035202,238.561325 
	C243.329254,228.113571 241.890274,226.033615 231.366882,226.038910 
	C230.384171,226.039398 229.401443,226.061218 227.666611,226.051498 
	C224.219330,225.936279 220.764984,225.920563 217.326859,225.676468 
	C214.198151,225.454346 213.470551,226.857010 213.497971,229.784149 
	C213.570312,237.507050 213.310959,245.233047 212.371582,252.991043 
	C210.215698,252.997971 208.048416,253.148911 205.906448,252.979721 
	C202.252869,252.691086 200.834106,254.190308 200.947754,257.877014 
	C201.141830,264.173370 201.063461,270.480835 200.977142,276.781952 
	C200.937195,279.697388 202.085464,281.036896 205.084305,280.997589 
	C211.717194,280.910583 218.352707,280.911591 224.985657,280.995605 
	C228.055847,281.034485 228.956070,279.525146 229.022629,276.688354 
	C229.091354,273.758942 229.616425,270.840240 230.703094,267.479218 
M283.500000,332.008301 
	C289.823517,332.008148 296.147644,331.954071 302.470245,332.030670 
	C305.625793,332.068878 308.182373,332.351562 308.168182,327.590210 
	C308.154694,323.067780 306.016479,322.944397 302.648254,322.953735 
	C275.856750,323.028046 249.064819,323.035034 222.273407,322.946228 
	C218.811539,322.934753 216.764084,323.221436 216.835342,327.664307 
	C216.903061,331.885040 218.873428,332.066925 222.094040,332.052765 
	C242.229034,331.964050 262.364624,332.008209 283.500000,332.008301 
M224.537262,184.058319 
	C211.999741,184.310822 213.173553,181.654724 213.120193,194.838348 
	C213.119522,195.004333 213.052887,195.242645 213.136963,195.325455 
	C214.345337,196.515686 215.492996,198.577560 216.813065,198.697845 
	C221.423599,199.117981 226.096069,198.917343 230.743820,198.858444 
	C242.325516,198.711670 240.989410,200.914047 241.058990,187.489029 
	C241.072235,184.931686 240.034592,183.935547 237.477707,184.020386 
	C233.497574,184.152481 229.509918,184.057327 224.537262,184.058319 
M290.260559,267.015045 
	C285.945312,267.015228 281.630035,267.015747 277.314789,267.015564 
	C267.370697,267.015198 267.389771,267.066498 268.001312,276.981079 
	C268.164398,279.625122 269.045532,280.994202 271.824463,280.974518 
	C278.628906,280.926270 285.434143,280.929047 292.238678,280.972321 
	C295.016937,280.989960 296.124969,279.622894 296.021210,276.962494 
	C295.956604,275.305359 295.894409,273.633514 296.036194,271.985901 
	C296.345459,268.392273 294.932709,266.605927 290.260559,267.015045 
M195.388748,198.076508 
	C193.237595,198.080322 191.036011,197.812714 188.956009,198.199310 
	C187.871475,198.400894 186.269882,199.674423 186.167648,200.603134 
	C185.825851,203.707687 185.820190,206.903656 186.196686,210.002533 
	C186.323685,211.047897 187.842804,212.518677 188.949661,212.757675 
	C199.007492,214.929382 201.006897,213.075485 201.108597,202.799973 
	C201.145264,199.095367 200.041824,197.514862 195.388748,198.076508 
z"/>
<path fill="#351A12" opacity="1.000000" stroke="none" 
	d="
M214.927139,335.113647 
	C240.842819,335.172058 266.758514,335.224701 292.674164,335.294037 
	C297.491425,335.306915 302.308472,335.386902 307.558411,335.629425 
	C308.969360,339.666443 305.883545,337.928070 304.702789,337.935181 
	C286.226837,338.046844 267.750000,338.013397 249.273376,338.013428 
	C239.618927,338.013428 229.959595,338.191650 220.312332,337.928436 
	C216.278961,337.818390 214.415955,338.841431 214.930206,343.148071 
	C215.138779,344.894928 214.629974,346.727417 214.099823,348.772156 
	C213.509415,344.256958 213.266754,339.490540 213.317291,334.451294 
	C214.049362,334.490204 214.488251,334.801910 214.927139,335.113647 
z"/>
<path fill="#482A1F" opacity="1.000000" stroke="none" 
	d="
M132.990631,266.990906 
	C132.990631,266.990906 132.712463,266.788879 132.429153,266.536682 
	C131.786804,265.791046 131.427765,265.297638 131.068710,264.804199 
	C131.212036,260.194672 131.355347,255.585114 131.919113,250.665527 
	C132.913712,251.208130 133.487869,252.060791 134.513885,252.945312 
	C138.584793,253.018951 142.203842,253.060715 145.901825,253.049683 
	C145.980743,252.996887 146.151993,252.914856 146.090302,253.377167 
	C146.046631,257.570709 146.064682,261.301971 146.082718,265.033203 
	C145.717285,265.409790 145.351852,265.786407 144.518372,266.488647 
	C140.363754,266.873138 136.677200,266.932037 132.990631,266.990906 
z"/>
<path fill="#623F1C" opacity="1.000000" stroke="none" 
	d="
M134.062042,252.913437 
	C133.487869,252.060791 132.913712,251.208130 132.099915,250.245117 
	C131.678146,248.672775 131.337662,247.210739 131.337814,245.748749 
	C131.339890,225.809723 131.389053,205.870712 131.887115,185.493149 
	C132.917542,185.012115 133.487503,184.969620 134.051910,184.939240 
	C134.046387,184.951340 134.063370,184.949539 134.041031,185.423325 
	C134.033142,208.235886 134.047592,230.574661 134.062042,252.913437 
z"/>
<path fill="#6E4E2D" opacity="1.000000" stroke="none" 
	d="
M134.057449,184.927124 
	C133.487503,184.969620 132.917542,185.012115 132.062256,185.062622 
	C131.643860,184.653946 131.510818,184.237274 131.736359,183.312073 
	C131.883636,179.816833 131.672302,176.830139 131.460968,173.843445 
	C131.816864,173.223312 132.172775,172.603195 132.758835,171.775299 
	C133.178101,171.506500 133.367188,171.445435 133.818756,171.953857 
	C134.073303,176.657913 134.065384,180.792526 134.057449,184.927124 
z"/>
<path fill="#C59666" opacity="1.000000" stroke="none" 
	d="
M131.278473,174.279938 
	C131.672302,176.830139 131.883636,179.816833 131.782822,182.977020 
	C131.345779,180.339172 131.220871,177.527802 131.278473,174.279938 
z"/>
<path fill="#FFFFFF" opacity="1.000000" stroke="none" 
	d="
M131.045349,265.172272 
	C131.427765,265.297638 131.786804,265.791046 132.268616,266.598114 
	C132.160736,266.937042 131.930084,266.962372 131.351761,267.001160 
	C131.010040,266.523224 131.016006,266.031799 131.045349,265.172272 
z"/>
<path fill="#FBFBF9" opacity="1.000000" stroke="none" 
	d="
M255.918610,144.462372 
	C264.699829,143.969131 273.494354,143.924408 282.751282,143.717560 
	C283.275879,147.365082 283.338074,151.174728 283.201416,155.595444 
	C282.995514,156.381973 282.988434,156.557419 282.516785,156.795166 
	C273.697906,156.900864 265.343628,156.944275 256.990143,156.995789 
	C256.990936,157.003891 256.975739,157.018234 256.975739,157.018234 
	C256.627808,152.982452 256.279877,148.946686 255.918610,144.462372 
z"/>
<path fill="#C59666" opacity="1.000000" stroke="none" 
	d="
M158.007660,156.925583 
	C157.922531,156.593521 158.012833,156.319321 158.497650,156.046936 
	C159.531067,156.026566 160.345413,156.062256 161.880463,156.353546 
	C192.736313,156.655884 222.871445,156.702621 253.006592,156.749359 
	C254.069199,156.779816 255.131790,156.810303 256.585083,156.929504 
	C256.975739,157.018234 256.990936,157.003891 257.002075,157.307358 
	C256.641632,158.073151 256.270020,158.535477 255.436142,158.999390 
	C222.969849,159.003159 190.965851,159.005356 158.708420,158.832336 
	C158.305878,158.079941 158.156769,157.502762 158.007660,156.925583 
z"/>
<path fill="#8C6741" opacity="1.000000" stroke="none" 
	d="
M252.890564,156.382004 
	C222.871445,156.702621 192.736313,156.655884 162.287079,156.337601 
	C163.513641,155.709671 165.053589,155.046143 166.595078,155.042572 
	C193.787918,154.979538 220.980972,154.980438 248.173843,155.040390 
	C249.708115,155.043777 251.240997,155.675415 252.890564,156.382004 
z"/>
<path fill="#D79F66" opacity="1.000000" stroke="none" 
	d="
M366.096344,253.083862 
	C366.058777,232.100632 365.887543,211.116150 366.083466,190.135101 
	C366.128967,185.264603 364.553619,183.347473 359.783051,184.005997 
	C358.802460,184.141373 357.775208,183.925217 356.790070,184.043243 
	C352.567688,184.549118 350.785828,183.021652 350.920441,178.487762 
	C351.161499,170.367218 352.152100,170.998657 343.545471,171.001846 
	C323.727753,171.009186 303.910065,171.051437 283.571167,171.066101 
	C283.049957,171.052719 282.921417,170.913132 282.975433,170.474335 
	C283.306793,166.360687 283.584106,162.685837 284.122925,158.868286 
	C284.582367,158.187408 284.780304,157.649231 285.313110,157.083923 
	C286.095428,157.066589 286.542938,157.076370 287.089783,157.472961 
	C288.204437,158.237274 289.218842,158.941544 290.235138,158.944290 
	C313.341187,159.006805 336.447571,159.019913 359.553284,158.912796 
	C360.718018,158.907410 361.877411,157.739014 363.010712,157.018036 
	C362.982147,156.923965 362.915314,156.738998 362.915314,156.738998 
	C363.508270,156.800446 364.101257,156.861908 364.972290,157.335464 
	C365.447754,158.886246 365.680786,160.020111 365.835815,161.164536 
	C366.267151,164.348312 365.561768,168.887955 367.369904,170.365326 
	C369.420929,172.041168 373.711121,170.976593 377.148712,171.317596 
	C377.496643,171.787704 377.776978,171.953674 378.110657,172.029648 
	C378.064514,198.703384 378.018372,225.377121 377.469421,252.528809 
	C373.343201,253.032455 369.719788,253.058151 366.096344,253.083862 
z"/>
<path fill="#8C6741" opacity="1.000000" stroke="none" 
	d="
M377.027802,171.103424 
	C373.711121,170.976593 369.420929,172.041168 367.369904,170.365326 
	C365.561768,168.887955 366.267151,164.348312 365.835815,161.164536 
	C365.680786,160.020111 365.447754,158.886246 365.419861,157.351105 
	C365.589355,156.954620 365.724487,156.987579 365.790955,157.005432 
	C369.263611,156.968979 372.669830,156.914658 376.534393,156.831085 
	C377.334015,157.259842 377.675293,157.717865 378.299957,158.259338 
	C378.570496,161.895340 378.557648,165.447891 378.240997,169.496826 
	C377.634033,170.363281 377.330933,170.733353 377.027802,171.103424 
z"/>
<path fill="#8C6741" opacity="1.000000" stroke="none" 
	d="
M286.990417,157.086166 
	C286.542938,157.076370 286.095428,157.066589 285.312744,156.809570 
	C284.973602,156.380188 284.969666,156.198059 284.965759,156.015915 
	C286.565887,155.676331 288.165253,155.045395 289.766296,155.040970 
	C312.886780,154.977020 336.007568,154.982178 359.128082,155.040070 
	C360.335205,155.043091 361.540771,155.666931 362.831177,156.370361 
	C362.915314,156.738998 362.982147,156.923965 362.540649,156.960266 
	C337.062897,157.026443 312.026672,157.056305 286.990417,157.086166 
z"/>
<path fill="#C59666" opacity="1.000000" stroke="none" 
	d="
M284.708649,155.990143 
	C284.969666,156.198059 284.973602,156.380188 284.977905,156.836700 
	C284.780304,157.649231 284.582367,158.187408 283.877930,158.660263 
	C283.241425,157.974243 283.111389,157.353561 282.981354,156.732880 
	C282.988434,156.557419 282.995514,156.381973 283.215973,156.050659 
	C283.770081,155.917984 284.110809,155.941177 284.708649,155.990143 
z"/>
<path fill="#EDC29A" opacity="1.000000" stroke="none" 
	d="
M350.835266,332.043610 
	C350.837463,332.742065 350.839661,333.440552 350.843750,334.487793 
	C342.175812,334.900848 333.505951,334.965118 324.358307,335.022461 
	C323.838531,334.243317 323.796570,333.471008 324.377625,332.358978 
	C333.612213,332.027344 342.223724,332.035492 350.835266,332.043610 
z"/>
<path fill="#EDC29A" opacity="1.000000" stroke="none" 
	d="
M200.692490,332.080322 
	C200.753754,332.756500 200.815018,333.432678 200.869629,334.452576 
	C196.542984,334.942383 192.222977,335.088531 187.460068,334.729523 
	C187.014191,333.486664 187.011230,332.748993 187.004974,332.006042 
	C187.001709,332.000763 187.011185,332.008087 187.470764,332.005127 
	C191.623993,331.998779 195.317642,331.995392 199.290451,332.036346 
	C199.943909,332.080566 200.318192,332.080444 200.692490,332.080322 
z"/>
<path fill="#E0B489" opacity="1.000000" stroke="none" 
	d="
M187.008255,332.011292 
	C187.011230,332.748993 187.014191,333.486664 187.013321,334.593109 
	C186.602737,334.949615 186.195999,334.937408 185.501770,334.818176 
	C185.167328,334.048248 185.120392,333.385315 185.412476,332.372314 
	C186.170425,332.018616 186.589340,332.014954 187.008255,332.011292 
z"/>
<path fill="#DAA167" opacity="1.000000" stroke="none" 
	d="
M365.003815,266.851929 
	C365.003815,266.851929 365.286255,266.836243 365.547241,267.124023 
	C365.867462,267.596466 365.926727,267.781158 365.985962,267.965820 
	C365.973083,271.992401 365.960205,276.018982 366.056976,280.494019 
	C366.096588,294.334412 366.026550,307.726318 365.903900,321.802124 
	C365.758362,322.629761 365.665466,322.773438 365.572540,322.917114 
	C361.359772,322.630371 357.147034,322.343597 352.462524,321.578583 
	C351.987732,309.136200 352.021515,297.171844 351.940918,285.208252 
	C351.929199,283.468689 351.370300,281.732788 351.053772,279.535553 
	C351.056366,275.400879 351.069824,271.725891 351.083252,268.050873 
	C351.083252,268.050873 351.533173,268.017517 352.217224,268.004913 
	C356.935425,267.612183 360.969635,267.232056 365.003815,266.851929 
z"/>
<path fill="#482A1F" opacity="1.000000" stroke="none" 
	d="
M365.698914,323.309326 
	C365.665466,322.773438 365.758362,322.629761 365.986511,322.267731 
	C369.593628,322.197754 373.065491,322.346069 376.732208,322.787048 
	C375.957733,325.716034 374.988403,328.352356 373.667480,331.945099 
	C372.311157,331.945099 370.053497,331.945099 367.356201,331.543732 
	C366.567566,329.760529 366.218536,328.378723 365.869507,326.996887 
	C365.854767,325.898438 365.840027,324.799957 365.698914,323.309326 
z"/>
<path fill="#C59666" opacity="1.000000" stroke="none" 
	d="
M200.867157,331.650513 
	C200.318192,332.080444 199.943909,332.080566 199.277359,331.587891 
	C199.003922,328.406921 199.022736,325.718781 199.041565,323.030609 
	C199.534515,322.459167 200.027466,321.887726 201.223541,321.166321 
	C205.619202,321.007965 209.311737,320.999573 213.004257,320.991150 
	C213.457535,321.914734 213.910812,322.838287 214.109558,323.893311 
	C210.300339,323.654236 206.749023,323.128113 203.187943,323.050446 
	C202.513245,323.035706 201.398849,324.721191 201.193787,325.761414 
	C200.846603,327.522736 201.062576,329.395081 200.867157,331.650513 
z"/>
<path fill="#C59666" opacity="1.000000" stroke="none" 
	d="
M214.942291,334.713074 
	C214.488251,334.801910 214.049362,334.490204 213.404510,333.979553 
	C213.296127,332.684509 213.393707,331.588348 213.702606,330.243073 
	C214.261780,331.433472 214.609619,332.872986 214.942291,334.713074 
z"/>
<path fill="#E0B489" opacity="1.000000" stroke="none" 
	d="
M350.901367,331.627899 
	C342.223724,332.035492 333.612213,332.027344 324.537354,332.004578 
	C323.884033,329.564606 323.694092,327.139282 323.465759,324.088226 
	C323.427368,323.462524 323.532715,322.979645 323.532715,322.979645 
	C332.114990,323.215454 340.697235,323.451233 349.666199,323.862823 
	C350.357758,326.429810 350.662628,328.820984 350.901367,331.627899 
z"/>
<path fill="#482A1F" opacity="1.000000" stroke="none" 
	d="
M323.351715,322.777466 
	C323.532715,322.979645 323.427368,323.462524 323.310181,323.679871 
	C319.456818,323.941071 315.720642,323.984894 311.526459,324.033875 
	C311.057220,323.651367 311.046021,323.263672 311.528748,322.552155 
	C315.671143,322.176178 319.319611,322.124023 322.968048,322.071899 
	C323.035614,322.239716 323.103180,322.407501 323.351715,322.777466 
z"/>
<path fill="#8C6741" opacity="1.000000" stroke="none" 
	d="
M310.964539,331.696716 
	C310.561279,329.430634 310.329193,326.733612 310.483124,323.971527 
	C310.958038,326.359589 311.046906,328.812653 310.964539,331.696716 
z"/>
<path fill="#8C6741" opacity="1.000000" stroke="none" 
	d="
M157.548157,156.937775 
	C158.156769,157.502762 158.305878,158.079941 158.703201,159.294281 
	C158.939713,170.966293 158.939713,170.966278 147.998016,171.033051 
	C147.671371,171.035034 147.344742,171.037582 146.669144,170.977432 
	C146.083862,170.915222 145.847534,170.915436 145.611206,170.915649 
	C145.754944,168.133484 146.161758,165.334137 145.981491,162.573135 
	C145.703079,158.308899 147.238998,156.367905 151.657135,156.915054 
	C153.441696,157.136078 155.276627,156.950516 157.548157,156.937775 
z"/>
<path fill="#8C6741" opacity="1.000000" stroke="none" 
	d="
M134.051910,184.939240 
	C134.065384,180.792526 134.073303,176.657913 134.108978,172.021759 
	C137.462524,171.361252 140.788315,171.202286 144.562622,171.358902 
	C145.357330,172.110123 145.703552,172.545761 146.039307,173.445465 
	C145.965775,177.628098 145.902740,181.346695 145.394943,185.047440 
	C141.321243,185.002914 137.692307,184.976227 134.063370,184.949539 
	C134.063370,184.949539 134.046387,184.951340 134.051910,184.939240 
z"/>
<path fill="#C59666" opacity="1.000000" stroke="none" 
	d="
M146.049774,172.981384 
	C145.703552,172.545761 145.357330,172.110123 145.006653,171.380157 
	C145.002197,171.085831 145.261444,170.831818 145.436325,170.873734 
	C145.847534,170.915436 146.083862,170.915222 146.649200,171.266144 
	C146.668747,172.071991 146.359268,172.526688 146.049774,172.981384 
z"/>
<path fill="#6E4E2D" opacity="1.000000" stroke="none" 
	d="
M389.524017,184.978607 
	C389.984467,207.334641 389.988861,229.689590 389.988403,252.510666 
	C389.983551,252.976776 390.007446,253.009995 389.566223,253.012711 
	C385.727539,253.331055 382.330048,253.646683 378.907593,253.746048 
	C378.882629,253.529785 378.873810,253.094482 378.873810,253.094482 
	C379.243713,251.004318 379.925140,248.915604 379.934753,246.823776 
	C380.018890,228.501602 379.982422,210.178864 379.983276,191.856293 
	C379.983612,184.978546 379.985443,184.978516 387.069092,184.977280 
	C387.735382,184.977158 388.401642,184.977448 389.524017,184.978607 
z"/>
<path fill="#B86D52" opacity="1.000000" stroke="none" 
	d="
M378.620361,253.060638 
	C378.873810,253.094482 378.882629,253.529785 378.871460,254.202057 
	C378.820526,257.899536 378.780731,260.924713 378.740936,263.949890 
	C378.258850,264.804169 377.776794,265.658447 377.251526,266.808289 
	C377.003326,267.104065 376.798370,267.104309 376.032593,266.819519 
	C372.610046,266.984589 369.748322,267.434662 366.886597,267.884766 
	C366.886597,267.884766 366.440247,267.968750 366.213104,267.967285 
	C365.926727,267.781158 365.867462,267.596466 365.686829,267.146973 
	C365.709900,262.585052 365.854401,258.287903 366.047607,253.537323 
	C369.719788,253.058151 373.343201,253.032455 377.412140,252.993134 
	C378.027405,252.995285 378.197144,253.011047 378.620361,253.060638 
z"/>
<path fill="#C59666" opacity="1.000000" stroke="none" 
	d="
M377.148712,171.317596 
	C377.330933,170.733353 377.634033,170.363281 378.174194,169.940704 
	C378.567291,170.015793 378.723358,170.143387 378.946045,170.565491 
	C378.863983,171.165390 378.715302,171.470779 378.338654,171.902924 
	C377.776978,171.953674 377.496643,171.787704 377.148712,171.317596 
z"/>
<path fill="#6E4E2D" opacity="1.000000" stroke="none" 
	d="
M391.846375,183.973801 
	C391.488983,184.492950 391.014282,184.731445 390.260071,184.975174 
	C390.563385,184.551315 391.146210,184.122238 391.846375,183.973801 
z"/>
<path fill="#DAA167" opacity="1.000000" stroke="none" 
	d="
M187.004974,332.006042 
	C186.589340,332.014954 186.170425,332.018616 185.439636,332.038879 
	C185.127762,329.294922 185.127762,326.534302 185.127762,322.925629 
	C176.423126,322.925629 168.280212,322.925629 159.616852,322.562439 
	C158.979156,321.796692 158.861893,321.394135 158.797577,320.566986 
	C158.686523,318.748505 158.522507,317.354584 158.495239,315.516113 
	C158.507416,303.406250 158.382843,291.740997 158.459442,279.726562 
	C158.727905,275.917328 158.795181,272.457275 159.108246,268.903076 
	C159.565689,268.533630 159.777313,268.258301 160.453400,267.987823 
	C165.281128,267.657196 169.644379,267.321747 174.007645,266.986298 
	C174.755280,267.002380 175.502914,267.018463 176.905853,267.318054 
	C180.050674,267.713501 182.540176,267.825470 185.029663,267.937439 
	C185.357178,269.665833 185.960251,271.392883 185.968948,273.122864 
	C186.044083,288.060974 185.997559,302.999603 186.031158,317.938019 
	C186.035217,319.742828 186.299759,321.547028 186.717590,324.100006 
	C186.998154,327.235016 187.004669,329.621552 187.011185,332.008087 
	C187.011185,332.008087 187.001709,332.000763 187.004974,332.006042 
z"/>
<path fill="#8C6741" opacity="1.000000" stroke="none" 
	d="
M158.744614,320.991547 
	C158.861893,321.394135 158.979156,321.796692 159.166534,322.504944 
	C159.126007,325.579346 159.015366,328.348114 158.716034,331.420013 
	C158.317947,331.768005 158.108536,331.812866 157.534882,331.428711 
	C157.135666,329.015320 157.100708,327.030914 157.072449,324.780853 
	C157.059021,324.339203 157.038879,324.163177 157.041229,323.744690 
	C157.063721,323.502197 157.047028,323.015442 157.061829,323.023254 
	C157.076645,323.031097 157.107010,323.016998 157.326294,322.864807 
	C157.945251,322.138947 158.344925,321.565247 158.744614,320.991547 
z"/>
<path fill="#E0B489" opacity="1.000000" stroke="none" 
	d="
M351.064606,279.995209 
	C351.370300,281.732788 351.929199,283.468689 351.940918,285.208252 
	C352.021515,297.171844 351.987732,309.136200 352.006470,321.574036 
	C352.022217,322.047760 351.576813,322.081665 351.354614,322.077576 
	C350.757385,320.386719 350.071136,318.702454 350.057404,317.012756 
	C349.962433,305.310760 350.007477,293.607635 350.123596,281.215576 
	C350.454346,280.255707 350.729340,280.078674 351.064606,279.995209 
z"/>
<path fill="#6E4E2D" opacity="1.000000" stroke="none" 
	d="
M365.638763,327.248230 
	C366.218536,328.378723 366.567566,329.760529 366.901917,331.521515 
	C366.887207,331.900665 366.411011,331.977234 366.169556,331.978271 
	C365.754761,330.486084 365.581390,328.992828 365.638763,327.248230 
z"/>
<path fill="#6E4E2D" opacity="1.000000" stroke="none" 
	d="
M365.946350,333.327515 
	C366.270386,333.174988 366.500671,333.383606 366.579956,333.974731 
	C366.286835,334.061035 366.094696,333.838196 365.946350,333.327515 
z"/>
<path fill="#B86D52" opacity="1.000000" stroke="none" 
	d="
M159.988953,267.983002 
	C159.777313,268.258301 159.565689,268.533630 158.899780,268.786499 
	C158.228745,268.515717 158.093521,268.228882 158.039856,267.903564 
	C156.737961,267.268524 155.494400,266.328918 154.121231,266.065918 
	C151.730667,265.608032 149.260147,265.567535 146.452942,265.192627 
	C146.064682,261.301971 146.046631,257.570709 146.544250,253.404449 
	C155.697495,252.990845 164.335068,253.012283 172.972656,253.033722 
	C173.250015,257.020172 173.527390,261.006592 173.328568,265.471741 
	C170.029358,265.977722 167.181702,265.792908 164.393158,266.116821 
	C162.873352,266.293396 161.453751,267.332764 159.988953,267.983002 
z"/>
<path fill="#623F1C" opacity="1.000000" stroke="none" 
	d="
M158.258255,280.075684 
	C158.382843,291.740997 158.507416,303.406250 158.193207,315.671814 
	C157.538620,318.520416 157.322815,320.768707 157.107025,323.016998 
	C157.107010,323.016998 157.076645,323.031097 156.710419,323.005798 
	C155.877151,322.947205 155.410141,322.913879 155.021942,322.480957 
	C155.402771,319.968506 155.949081,317.857635 155.965805,315.742584 
	C156.053391,304.669281 156.006729,293.594940 156.006729,282.484375 
	C149.080643,281.330170 149.002899,281.381561 149.004791,288.048767 
	C149.008011,299.353271 149.026047,310.657806 149.015366,321.984497 
	C148.992889,322.006714 148.947739,322.050934 148.947739,322.050934 
	C148.590698,322.066864 148.233643,322.082764 147.614471,322.138306 
	C147.290863,308.742249 147.229385,295.306610 147.582352,281.364502 
	C151.417267,280.597229 154.837769,280.336456 158.258255,280.075684 
z"/>
<path fill="#482A1F" opacity="1.000000" stroke="none" 
	d="
M158.459442,279.726562 
	C154.837769,280.336456 151.417267,280.597229 147.628235,280.894073 
	C147.169006,280.114288 147.020325,279.300110 146.996399,278.482300 
	C146.690247,268.014252 146.694778,268.014130 157.573822,267.913940 
	C158.093521,268.228882 158.228745,268.515717 158.653992,268.880615 
	C158.795181,272.457275 158.727905,275.917328 158.459442,279.726562 
z"/>
<path fill="#FFFFFF" opacity="1.000000" stroke="none" 
	d="
M133.264526,267.300964 
	C136.677200,266.932037 140.363754,266.873138 144.508118,266.765045 
	C145.249878,267.421112 145.533859,268.126434 145.534363,268.969635 
	C141.346741,268.608704 137.442581,268.109863 133.264526,267.300964 
z"/>
<path fill="#6E4E2D" opacity="1.000000" stroke="none" 
	d="
M367.281067,267.957855 
	C369.748322,267.434662 372.610046,266.984589 375.726257,266.846069 
	C373.212372,267.448761 370.443970,267.739838 367.281067,267.957855 
z"/>
<path fill="#482A1F" opacity="1.000000" stroke="none" 
	d="
M154.943115,322.880554 
	C155.410141,322.913879 155.877151,322.947205 156.695602,322.997986 
	C157.047028,323.015442 157.063721,323.502197 156.866180,323.842499 
	C156.801025,324.470703 156.933395,324.758606 157.065750,325.046509 
	C157.100708,327.030914 157.135666,329.015320 157.213852,331.417450 
	C156.926422,331.866913 156.596390,331.916412 156.265045,331.927795 
	C148.991043,332.178162 148.991013,332.177338 149.387268,324.410278 
	C150.482330,323.617249 151.230072,323.265381 152.349457,322.924927 
	C153.461761,322.917725 154.202438,322.899139 154.943115,322.880554 
z"/>
<path fill="#623F1C" opacity="1.000000" stroke="none" 
	d="
M151.977814,322.913513 
	C151.230072,323.265381 150.482330,323.617249 149.401398,323.959229 
	C149.038437,323.527405 149.008667,323.105499 148.963318,322.367249 
	C148.947739,322.050934 148.992889,322.006714 149.343109,321.997437 
	C150.454819,322.296600 151.216309,322.605042 151.977814,322.913513 
z"/>
<path fill="#482A1F" opacity="1.000000" stroke="none" 
	d="
M379.069824,264.075317 
	C378.780731,260.924713 378.820526,257.899536 378.896423,254.418335 
	C382.330048,253.646683 385.727539,253.331055 389.574951,253.031036 
	C390.012665,253.706131 389.921478,254.375259 390.000702,255.023575 
	C390.630798,260.180725 390.042694,264.275635 383.177734,263.228973 
	C382.902496,263.186981 382.518188,263.860413 382.104095,264.585358 
	C381.148560,264.713684 380.273621,264.457214 379.069824,264.075317 
z"/>
<path fill="#D9A066" opacity="1.000000" stroke="none" 
	d="
M252.995529,170.899750 
	C232.191986,170.931732 211.388412,170.993591 190.584976,170.960709 
	C187.748505,170.956223 185.969406,171.172012 185.913162,174.865997 
	C185.778366,183.719101 185.212433,184.047653 175.232941,183.747070 
	C173.874771,183.523697 173.163010,183.566360 172.451233,183.609039 
	C172.645599,184.412186 172.839951,185.215317 173.034302,186.018463 
	C173.032028,206.699951 173.029755,227.381439 172.569336,248.531357 
	C166.822784,248.666504 161.525833,247.982941 156.248718,248.111847 
	C152.101852,248.213135 150.870026,246.962158 150.908783,242.782227 
	C151.106522,221.455917 150.993927,200.126770 151.013840,178.798645 
	C151.015182,177.351303 151.212784,175.904160 151.338562,174.192108 
	C153.190582,174.192108 154.689133,173.992874 156.115250,174.229797 
	C160.249084,174.916550 162.693878,172.628998 162.832397,169.126617 
	C163.028473,164.168808 165.227951,162.923965 169.710785,162.944504 
	C194.870804,163.059738 220.031631,162.987930 245.192169,163.007492 
	C252.637283,163.013275 252.996933,163.418289 252.995529,170.899750 
z"/>
<path fill="#DAA167" opacity="1.000000" stroke="none" 
	d="
M253.334839,170.928421 
	C252.996933,163.418289 252.637283,163.013275 245.192169,163.007492 
	C220.031631,162.987930 194.870804,163.059738 169.710785,162.944504 
	C165.227951,162.923965 163.028473,164.168808 162.832397,169.126617 
	C162.693878,172.628998 160.249084,174.916550 156.115250,174.229797 
	C154.689133,173.992874 153.190582,174.192108 151.338562,174.192108 
	C151.212784,175.904160 151.015182,177.351303 151.013840,178.798645 
	C150.993927,200.126770 151.106522,221.455917 150.908783,242.782227 
	C150.870026,246.962158 152.101852,248.213135 156.248718,248.111847 
	C161.525833,247.982941 166.822784,248.666504 172.556900,248.999893 
	C173.010025,250.075500 173.017426,251.150986 172.998734,252.630096 
	C164.335068,253.012283 155.697495,252.990845 146.605957,252.942139 
	C146.151993,252.914856 145.980743,252.996887 145.978607,252.576416 
	C145.930878,229.792404 145.885284,207.428833 145.839691,185.065277 
	C145.902740,181.346695 145.965775,177.628098 146.039291,173.445450 
	C146.359268,172.526688 146.668747,172.071991 146.998169,171.328583 
	C147.344742,171.037582 147.671371,171.035034 147.998016,171.033051 
	C158.939713,170.966278 158.939713,170.966293 158.956635,159.469513 
	C190.965851,159.005356 222.969849,159.003159 255.466980,159.456818 
	C255.955215,163.276611 255.950348,166.640579 255.741730,170.106796 
	C255.289566,170.402313 255.122131,170.650269 255.035736,170.952911 
	C254.581863,170.954315 254.128006,170.955704 253.334839,170.928421 
z"/>
<path fill="#080706" opacity="1.000000" stroke="none" 
	d="
M213.183655,252.957809 
	C213.310959,245.233047 213.570312,237.507050 213.497971,229.784149 
	C213.470551,226.857010 214.198151,225.454346 217.326859,225.676468 
	C220.764984,225.920563 224.219330,225.936279 228.055267,226.521866 
	C228.463120,227.656845 228.497452,228.321411 228.499252,228.986069 
	C228.530457,240.561752 226.726135,240.091705 240.004105,239.452133 
	C240.410004,242.641342 241.170135,245.833282 241.145599,249.019180 
	C241.099228,255.037689 240.601593,261.052704 239.710632,267.271545 
	C237.447220,267.621338 235.764694,267.768768 234.082153,267.916199 
	C232.955795,267.770538 231.829453,267.624878 229.925385,267.448669 
	C225.338516,267.366974 221.515961,267.098389 217.724350,267.332062 
	C214.578506,267.525940 213.593979,266.222412 213.585648,263.332367 
	C213.575668,259.873810 213.328232,256.415955 213.183655,252.957809 
z"/>
<path fill="#080706" opacity="1.000000" stroke="none" 
	d="
M338.366974,240.807358 
	C338.381042,244.568481 338.395111,248.329620 338.392914,252.968140 
	C338.349426,256.652954 338.155975,259.471069 338.335876,262.265167 
	C338.577026,266.010040 337.440216,267.512543 333.299255,267.374664 
	C326.239929,267.139679 319.155640,267.655090 312.081818,267.855255 
	C311.674042,266.450165 310.925385,265.048218 310.912354,263.639496 
	C310.805450,252.081909 310.749817,240.521484 310.964722,228.967239 
	C310.984772,227.888245 312.866760,226.121002 314.078888,225.933838 
	C316.811066,225.511932 319.665314,225.880447 322.983795,226.402527 
	C323.791687,240.565903 323.791687,240.565903 337.174561,239.795273 
	C337.607635,240.354263 337.987305,240.580811 338.366974,240.807358 
z"/>
<path fill="#E0B489" opacity="1.000000" stroke="none" 
	d="
M283.000000,332.008331 
	C262.364624,332.008209 242.229034,331.964050 222.094040,332.052765 
	C218.873428,332.066925 216.903061,331.885040 216.835342,327.664307 
	C216.764084,323.221436 218.811539,322.934753 222.273407,322.946228 
	C249.064819,323.035034 275.856750,323.028046 302.648254,322.953735 
	C306.016479,322.944397 308.154694,323.067780 308.168182,327.590210 
	C308.182373,332.351562 305.625793,332.068878 302.470245,332.030670 
	C296.147644,331.954071 289.823517,332.008148 283.000000,332.008331 
z"/>
<path fill="#DC9CB8" opacity="1.000000" stroke="none" 
	d="
M312.260132,268.150726 
	C319.155640,267.655090 326.239929,267.139679 333.299255,267.374664 
	C337.440216,267.512543 338.577026,266.010040 338.335876,262.265167 
	C338.155975,259.471069 338.349426,256.652954 338.544067,253.405014 
	C350.969604,253.155518 350.969452,253.155518 351.008331,265.611572 
	C351.009888,266.110016 351.020294,266.608429 351.054932,267.578857 
	C351.069824,271.725891 351.056366,275.400879 351.053772,279.535553 
	C350.729340,280.078674 350.454346,280.255707 350.122650,280.744598 
	C342.514374,280.965820 335.022675,280.923431 327.532043,280.995605 
	C324.816650,281.021759 323.195251,280.364471 322.975739,277.181213 
	C322.430542,269.276367 322.308899,269.294525 314.312164,268.939941 
	C313.681549,268.911957 313.062714,268.617065 312.260132,268.150726 
z"/>
<path fill="#DC9CB8" opacity="1.000000" stroke="none" 
	d="
M212.777618,252.974426 
	C213.328232,256.415955 213.575668,259.873810 213.585648,263.332367 
	C213.593979,266.222412 214.578506,267.525940 217.724350,267.332062 
	C221.515961,267.098389 225.338516,267.366974 229.544769,267.667480 
	C229.616425,270.840240 229.091354,273.758942 229.022629,276.688354 
	C228.956070,279.525146 228.055847,281.034485 224.985657,280.995605 
	C218.352707,280.911591 211.717194,280.910583 205.084305,280.997589 
	C202.085464,281.036896 200.937195,279.697388 200.977142,276.781952 
	C201.063461,270.480835 201.141830,264.173370 200.947754,257.877014 
	C200.834106,254.190308 202.252869,252.691086 205.906448,252.979721 
	C208.048416,253.148911 210.215698,252.997971 212.777618,252.974426 
z"/>
<path fill="#FBFBF9" opacity="1.000000" stroke="none" 
	d="
M225.031357,184.058411 
	C229.509918,184.057327 233.497574,184.152481 237.477707,184.020386 
	C240.034592,183.935547 241.072235,184.931686 241.058990,187.489029 
	C240.989410,200.914047 242.325516,198.711670 230.743820,198.858444 
	C226.096069,198.917343 221.423599,199.117981 216.813065,198.697845 
	C215.492996,198.577560 214.345337,196.515686 213.136963,195.325455 
	C213.052887,195.242645 213.119522,195.004333 213.120193,194.838348 
	C213.173553,181.654724 211.999741,184.310822 225.031357,184.058411 
z"/>
<path fill="#DAA167" opacity="1.000000" stroke="none" 
	d="
M290.728455,267.015167 
	C294.932709,266.605927 296.345459,268.392273 296.036194,271.985901 
	C295.894409,273.633514 295.956604,275.305359 296.021210,276.962494 
	C296.124969,279.622894 295.016937,280.989960 292.238678,280.972321 
	C285.434143,280.929047 278.628906,280.926270 271.824463,280.974518 
	C269.045532,280.994202 268.164398,279.625122 268.001312,276.981079 
	C267.389771,267.066498 267.370697,267.015198 277.314789,267.015564 
	C281.630035,267.015747 285.945312,267.015228 290.728455,267.015167 
z"/>
<path fill="#DAA167" opacity="1.000000" stroke="none" 
	d="
M283.117004,171.119812 
	C283.439941,173.970291 283.753845,176.749863 283.937317,179.538025 
	C284.183319,183.276352 282.419739,185.049759 278.616364,184.996216 
	C272.638092,184.912064 266.654694,184.859436 260.679474,185.018631 
	C257.268311,185.109512 255.750610,183.828247 255.969757,180.362686 
	C256.126709,177.880630 256.016937,175.381729 256.242798,172.331818 
	C256.723114,171.595367 256.901764,171.354401 257.464478,171.045197 
	C266.262787,170.997696 274.592102,170.955414 282.921417,170.913132 
	C282.921417,170.913132 283.049957,171.052719 283.117004,171.119812 
z"/>
<path fill="#FBFBF9" opacity="1.000000" stroke="none" 
	d="
M195.858490,198.076752 
	C200.041824,197.514862 201.145264,199.095367 201.108597,202.799973 
	C201.006897,213.075485 199.007492,214.929382 188.949661,212.757675 
	C187.842804,212.518677 186.323685,211.047897 186.196686,210.002533 
	C185.820190,206.903656 185.825851,203.707687 186.167648,200.603134 
	C186.269882,199.674423 187.871475,198.400894 188.956009,198.199310 
	C191.036011,197.812714 193.237595,198.080322 195.858490,198.076752 
z"/>
<path fill="#FBFBF9" opacity="1.000000" stroke="none" 
	d="
M337.121185,239.462830 
	C323.791687,240.565903 323.791687,240.565903 323.476044,226.428574 
	C326.261627,225.962769 329.068909,225.932419 331.876160,225.932114 
	C338.967224,225.931351 339.013611,225.938004 338.820312,233.121277 
	C338.776917,234.733063 338.284760,236.332764 337.675842,238.381317 
	C337.033417,238.949585 336.956329,239.162338 337.121185,239.462830 
z"/>
<path fill="#E0B489" opacity="1.000000" stroke="none" 
	d="
M322.988464,321.602966 
	C319.319611,322.124023 315.671143,322.176178 311.572205,322.254425 
	C311.080200,319.962250 311.007538,317.643982 311.002960,315.325623 
	C310.988464,307.984283 312.538727,306.609314 319.877045,308.168640 
	C321.110596,308.430756 322.662384,310.369781 322.856384,311.709351 
	C323.303070,314.793579 323.004822,317.985718 322.988464,321.602966 
z"/>
<path fill="#E0B489" opacity="1.000000" stroke="none" 
	d="
M213.006851,320.530945 
	C209.311737,320.999573 205.619202,321.007965 201.466797,321.013214 
	C201.005020,318.513885 201.241180,315.989685 200.951675,313.527313 
	C200.350479,308.413849 203.166718,307.943634 207.282059,307.886993 
	C211.563446,307.828064 213.538040,309.114349 213.049011,313.584991 
	C212.815170,315.722748 213.009201,317.907349 213.006851,320.530945 
z"/>
<path fill="#FBFBF9" opacity="1.000000" stroke="none" 
	d="
M240.019653,239.006729 
	C226.726135,240.091705 228.530457,240.561752 228.499252,228.986069 
	C228.497452,228.321411 228.463120,227.656845 228.431335,226.532684 
	C229.401443,226.061218 230.384171,226.039398 231.366882,226.038910 
	C241.890274,226.033615 243.329254,228.113571 240.019653,239.006729 
z"/>
<path fill="#E0B489" opacity="1.000000" stroke="none" 
	d="
M187.470764,332.005127 
	C187.004669,329.621552 186.998154,327.235016 187.001175,324.398560 
	C190.713333,323.635712 194.415924,323.322815 198.580048,323.020264 
	C199.022736,325.718781 199.003922,328.406921 198.998199,331.543549 
	C195.317642,331.995392 191.623993,331.998779 187.470764,332.005127 
z"/>
<path fill="#C59666" opacity="1.000000" stroke="none" 
	d="
M160.453400,267.987823 
	C161.453751,267.332764 162.873352,266.293396 164.393158,266.116821 
	C167.181702,265.792908 170.029358,265.977722 173.284760,265.913391 
	C173.786621,266.055847 173.856110,266.235352 173.966629,266.700592 
	C169.644379,267.321747 165.281128,267.657196 160.453400,267.987823 
z"/>
<path fill="#E0B489" opacity="1.000000" stroke="none" 
	d="
M364.688416,266.597656 
	C360.969635,267.232056 356.935425,267.612183 352.441559,267.981415 
	C353.711426,267.314911 355.400604,266.288971 357.180481,266.094971 
	C359.540924,265.837677 361.972198,266.230133 364.688416,266.597656 
z"/>
<path fill="#E0B489" opacity="1.000000" stroke="none" 
	d="
M184.938812,267.565735 
	C182.540176,267.825470 180.050674,267.713501 177.279770,267.320251 
	C179.614899,267.090637 182.231430,267.142334 184.938812,267.565735 
z"/>
<path fill="#DC9CB8" opacity="1.000000" stroke="none" 
	d="
M234.233643,268.175079 
	C235.764694,267.768768 237.447220,267.621338 239.524872,267.653564 
	C238.075043,268.033478 236.230072,268.233734 234.233643,268.175079 
z"/>
<path fill="#DAA167" opacity="1.000000" stroke="none" 
	d="
M173.295013,185.890503 
	C172.839951,185.215317 172.645599,184.412186 172.451233,183.609039 
	C173.163010,183.566360 173.874771,183.523697 174.790405,183.735321 
	C174.514755,184.580582 174.035233,185.171555 173.295013,185.890503 
z"/>
<path fill="#C59666" opacity="1.000000" stroke="none" 
	d="
M256.995453,171.050400 
	C256.901764,171.354401 256.723114,171.595367 256.252838,171.868622 
	C255.713379,171.871231 255.446365,171.684448 255.140472,171.178253 
	C255.122131,170.650269 255.289566,170.402313 255.976593,170.213837 
	C256.608612,170.495865 256.802032,170.773132 256.995453,171.050400 
z"/>
<path fill="#DC9CB8" opacity="1.000000" stroke="none" 
	d="
M337.174561,239.795273 
	C336.956329,239.162338 337.033417,238.949585 337.533417,238.754089 
	C338.050354,239.259674 338.386383,239.835770 338.544678,240.609619 
	C337.987305,240.580811 337.607635,240.354263 337.174561,239.795273 
z"/>
<path fill="#6E4E2D" opacity="1.000000" stroke="none" 
	d="
M145.394928,185.047440 
	C145.885284,207.428833 145.930878,229.792404 145.899689,252.629211 
	C142.203842,253.060715 138.584793,253.018951 134.513885,252.945312 
	C134.047592,230.574661 134.033142,208.235886 134.041031,185.423325 
	C137.692307,184.976227 141.321243,185.002914 145.394928,185.047440 
z"/>
<path fill="#8C6741" opacity="1.000000" stroke="none" 
	d="
M257.464478,171.045197 
	C256.802032,170.773132 256.608612,170.495865 256.180298,170.111572 
	C255.950348,166.640579 255.955215,163.276611 255.929260,159.455231 
	C256.270020,158.535477 256.641632,158.073151 257.001282,157.299255 
	C265.343628,156.944275 273.697906,156.900864 282.516785,156.795166 
	C283.111389,157.353561 283.241425,157.974243 283.616455,158.802948 
	C283.584106,162.685837 283.306793,166.360687 282.975433,170.474335 
	C274.592102,170.955414 266.262787,170.997696 257.464478,171.045197 
z"/>
<path fill="#C59666" opacity="1.000000" stroke="none" 
	d="
M287.089783,157.472961 
	C312.026672,157.056305 337.062897,157.026443 362.569214,157.054352 
	C361.877411,157.739014 360.718018,158.907410 359.553284,158.912796 
	C336.447571,159.019913 313.341187,159.006805 290.235138,158.944290 
	C289.218842,158.941544 288.204437,158.237274 287.089783,157.472961 
z"/>
<path fill="#6E4E2D" opacity="1.000000" stroke="none" 
	d="
M157.326294,322.864807 
	C157.322815,320.768707 157.538620,318.520416 158.056458,316.116394 
	C158.522507,317.354584 158.686523,318.748505 158.797577,320.566986 
	C158.344925,321.565247 157.945251,322.138947 157.326294,322.864807 
z"/>
<path fill="#351A12" opacity="1.000000" stroke="none" 
	d="
M157.072449,324.780853 
	C156.933395,324.758606 156.801025,324.470703 156.843704,324.084991 
	C157.038879,324.163177 157.059021,324.339203 157.072449,324.780853 
z"/>
<path fill="#6E4E2D" opacity="1.000000" stroke="none" 
	d="
M152.349457,322.924927 
	C151.216309,322.605042 150.454819,322.296600 149.365570,321.975220 
	C149.026047,310.657806 149.008011,299.353271 149.004791,288.048767 
	C149.002899,281.381561 149.080643,281.330170 156.006729,282.484375 
	C156.006729,293.594940 156.053391,304.669281 155.965805,315.742584 
	C155.949081,317.857635 155.402771,319.968506 155.021942,322.480927 
	C154.202438,322.899139 153.461761,322.917725 152.349457,322.924927 
z"/>
</svg>